<?xml version="1.0" encoding="UTF-8" standalone="no"?><svg xmlns="http://www.w3.org/2000/svg" version="1.1" id="logo" viewBox="0 0 375.99951 212.17284" xml:space="preserve"><style type="text/css" id="style2">.st0{fill:#FF6600;}</style><g id="g4687" transform="translate(196.8,379.11843)" style="fill:#d0d0d0;fill-opacity:1"><path id="path4689" class="st0" d="m -177.7,-167.9 h -19.1 l 29.4,-56.8 h 21.1 l 28.1,56.8 h -21.2 l -4.3,-10.2 h -29.5 z m 28.9,-22.6 -9.1,-20.7 -9.6,20.7 z" style="fill:#d0d0d0;fill-opacity:1" /></g><path id="path4691" class="st0" d="m 82.933,154.41703 h 18.3 v 56.8 h -18.3 z" style="fill:#d0d0d0;fill-opacity:1" /><path id="path4693" class="st0" d="m 110.533,154.41703 h 18.3 v 11.6 h -18.3 z m 0,17.2 h 18.3 v 39.6 h -18.3 z" style="fill:#d0d0d0;fill-opacity:1" /><g id="g4703" transform="translate(254.0243,406.27283)" style="fill:#d0d0d0;fill-opacity:1"><path id="path4705" class="st0" d="m -115.2,-251.9 h 18.3 v 22.9 c 2.2,-2.2 4.6,-3.9 7.3,-5 2.7,-1.1 5.6,-1.7 8.8,-1.7 6.2,0 11.2,2 15,6 3.8,4 5.7,9.3 5.7,15.8 0,6 -1.9,10.8 -5.6,14.4 -3.7,3.6 -8.7,5.4 -14.9,5.4 -3.4,0 -6.5,-0.6 -9.3,-1.9 -2.8,-1.2 -5.1,-3.1 -7.1,-5.5 0,1.3 0,2.5 -0.2,3.6 -0.1,1.1 -0.3,2 -0.5,2.8 H -116 c 0.2,-0.7 0.4,-1.7 0.5,-2.8 0.1,-1.1 0.2,-2.4 0.2,-3.8 v -50.2 m 36.8,37.2 c 0,-3.5 -0.8,-6.2 -2.5,-8.3 -1.6,-2 -3.9,-3 -6.7,-3 -3,0 -5.3,1 -7,2.9 -1.6,1.9 -2.4,4.8 -2.4,8.5 0,3.5 0.8,6.2 2.4,8.1 1.6,1.9 3.9,2.9 6.8,2.9 2.9,0 5.1,-1 6.8,-3 1.7,-2 2.6,-4.7 2.6,-8.1" style="fill:#d0d0d0;fill-opacity:1" /></g><g id="g4707" transform="translate(300.3234,382.15213)" style="fill:#d0d0d0;fill-opacity:1"><path id="path4709" class="st0" d="m -64.6,-177.3 c -1.7,2.3 -4,4 -6.8,5.1 -2.8,1.1 -6.1,1.7 -10.1,1.7 -5.6,0 -10,-1 -13,-3 -3,-2 -4.5,-4.8 -4.5,-8.5 0,-5 2.6,-8.6 7.8,-10.8 5.2,-2.2 14,-3.4 26.3,-3.5 0,-0.1 0,-0.2 0,-0.4 0,-0.2 0,-0.4 0,-0.5 0,-2 -0.6,-3.5 -1.8,-4.5 -1.2,-1 -3,-1.5 -5.5,-1.5 -2.2,0 -3.9,0.4 -5.1,1.1 -1.2,0.7 -1.9,1.8 -2.1,3.3 h -16.9 c 0.1,-4.4 2.2,-7.7 6.2,-9.8 4.1,-2.1 10.3,-3.2 18.7,-3.2 8,0 14,1.2 18,3.8 3.9,2.5 5.9,6.3 5.9,11.4 v 20.2 c 0,1.2 0.1,2.3 0.2,3 0.1,0.8 0.3,1.5 0.6,2.1 h -17 c -0.3,-0.9 -0.6,-1.9 -0.7,-2.9 -0.1,-1 -0.2,-2 -0.2,-3.1 m -0.4,-11.3 c -5.9,0 -10,0.4 -12.1,1.2 -2.1,0.8 -3.2,2.1 -3.2,4 0,1.3 0.5,2.3 1.6,3.1 1,0.7 2.5,1.1 4.4,1.1 3.1,0 5.4,-0.7 7,-2.2 1.6,-1.4 2.3,-3.6 2.3,-6.6 z" style="fill:#d0d0d0;fill-opacity:1" /></g><g id="g4711" transform="translate(312.499,406.27283)" style="fill:#d0d0d0;fill-opacity:1"><path id="path4713" class="st0" d="M -51.3,-251.9 H -33 v 22.9 c 2.2,-2.2 4.6,-3.9 7.3,-5 2.7,-1.1 5.6,-1.7 8.8,-1.7 6.2,0 11.2,2 15,6 3.8,4 5.7,9.3 5.7,15.8 0,6 -1.9,10.8 -5.6,14.4 -3.7,3.6 -8.7,5.4 -14.9,5.4 -3.4,0 -6.5,-0.6 -9.3,-1.9 -2.8,-1.2 -5.1,-3.1 -7.1,-5.5 0,1.3 -0.1,2.5 -0.2,3.6 -0.1,1.1 -0.3,2 -0.5,2.8 h -18.3 c 0.2,-0.7 0.4,-1.7 0.5,-2.8 0.1,-1.1 0.2,-2.4 0.2,-3.8 v -50.2 m 36.8,37.2 c 0,-3.5 -0.8,-6.2 -2.5,-8.3 -1.6,-2 -3.9,-3 -6.7,-3 -3,0 -5.3,1 -6.9,2.9 -1.6,1.9 -2.4,4.8 -2.4,8.5 0,3.5 0.8,6.2 2.4,8.1 1.6,1.9 3.9,2.9 6.8,2.9 2.8,0 5.1,-1 6.8,-3 1.7,-2 2.5,-4.7 2.5,-8.1" style="fill:#d0d0d0;fill-opacity:1" /></g><g id="g4715" transform="translate(358.7995,382.15213)" style="fill:#d0d0d0;fill-opacity:1"><path id="path4717" class="st0" d="m -0.7,-177.3 c -1.7,2.3 -4,4 -6.8,5.1 -2.8,1.1 -6.1,1.7 -10.1,1.7 -5.6,0 -10,-1 -13,-3 -3,-2 -4.5,-4.8 -4.5,-8.5 0,-5 2.6,-8.6 7.8,-10.8 5.2,-2.2 14,-3.4 26.3,-3.5 0,-0.1 0,-0.2 0,-0.4 0,-0.2 0,-0.4 0,-0.5 0,-2 -0.6,-3.5 -1.8,-4.5 -1.2,-1 -3,-1.5 -5.5,-1.5 -2.2,0 -3.9,0.4 -5.1,1.1 -1.2,0.7 -1.9,1.8 -2.1,3.3 h -16.9 c 0.1,-4.4 2.2,-7.7 6.2,-9.8 4.1,-2.1 10.3,-3.2 18.7,-3.2 8,0 14,1.2 18,3.8 3.9,2.5 5.9,6.3 5.9,11.4 v 20.2 c 0,1.2 0.1,2.3 0.2,3 0.1,0.8 0.3,1.5 0.6,2.1 h -17 c -0.3,-0.9 -0.6,-1.9 -0.7,-2.9 -0.1,-1 -0.2,-2 -0.2,-3.1 m -0.4,-11.3 c -5.9,0 -9.9,0.4 -12.1,1.2 -2.1,0.8 -3.2,2.1 -3.2,4 0,1.3 0.5,2.3 1.6,3.1 1,0.7 2.5,1.1 4.4,1.1 3.1,0 5.4,-0.7 7,-2.2 1.6,-1.4 2.3,-3.6 2.3,-6.6 z" style="fill:#d0d0d0;fill-opacity:1" /></g><g id="g4739" transform="translate(100.7407,355.32723)" style="fill:#d0d0d0;fill-opacity:1"><path id="path4741" d="m 7.9,-244.7 c -1,-0.1 -2.6,-1 -3.7,-1.9 -10.7,-10.5 3,-22.6 19,-29.6 v -20 c 3.7,2.4 5.8,2.5 5.9,2.8 l 12.2,-12.1 -4.1,-10.4 c 35.7,-12.3 50,-17 79,-21.9 l -5.2,-4.9 8.5,-4.8 c 19.5,6.4 37.9,8.1 34.7,24.5 0.8,-11.1 -13,-15.3 -34,-21.2 l -4.1,2.5 7.8,6.4 c -34.7,6 -56.1,12.8 -81.5,21.6 l 3.5,9 -12.8,12.7 c 2.1,0.6 24.4,8 47.5,-8.1 0,0 0.5,-0.3 0.5,-0.5 -0.7,-1.1 -2.3,-2.4 -4.2,-4.1 6.8,0.5 11.2,6.4 10.4,12.6 h -3.2 c 0.2,-2 -0.2,-4.2 -0.9,-5.6 -17.9,13.1 -38.7,15 -56.4,8.8 v 15.5 c -8.6,3 -23.9,12.5 -23.8,21.7 0.6,4.3 2.8,5.9 4.9,7" style="fill:#d0d0d0;fill-opacity:1" /></g><g id="g4743" transform="translate(135.7532,357.80383)" style="fill:#d0d0d0;fill-opacity:1"><path id="path4745" class="st0" d="m 46.1,-252.3 c -19.2,9.7 -37.6,17.5 -65.9,18.6 -36.9,-0.8 -42.6,-25.3 -25.2,-50.9 16.5,-25.8 42.7,-49.2 84.3,-63.8 12.1,-4.3 29.8,-9.1 46.9,-9.4 24.6,-0.2 48.5,7.4 46.9,31 -0.9,18.1 -27,43.5 -40.7,61.8 -5.9,8 -6.9,13.2 3.2,12.7 36.5,-2.4 69.5,-15 100.2,-28.1 -20.8,14.1 -128.1,67.2 -128.5,31 0.1,-4.6 2.2,-9.5 5.7,-14.7 3.4,-5.2 8.1,-10.6 13,-16.1 7.3,-8.3 25.5,-28.3 31.6,-40.3 C 127.9,-342.9 104.9,-344 85,-351 l -8.5,4.8 5.2,4.9 c -29,4.8 -43.3,9.6 -79,21.9 l 4.1,10.4 -12.1,12 c -0.3,-0.3 -2.1,-0.4 -5.9,-2.8 v 20 c -15.9,7 -29.7,19.1 -19,29.6 1.1,0.9 2.7,1.8 3.7,1.9 19.6,11 72.7,-4 72.6,-4" style="fill:#d0d0d0;fill-opacity:1" /></g><g id="g4747" transform="translate(190.5926,351.59728)" style="fill:#d0d0d0;fill-opacity:1"><path id="path4749" class="st0" d="m 106,-233.1 h 2.5 c 0.5,0 0.9,-0.1 1.2,-0.2 0.3,-0.1 0.5,-0.3 0.7,-0.5 0.2,-0.3 0.2,-0.5 0.2,-0.8 0,-0.4 -0.2,-0.8 -0.5,-1 -0.3,-0.3 -0.8,-0.4 -1.4,-0.4 H 106 Z m -1.1,5 v -8.9 h 4 c 0.8,0 1.4,0.1 1.8,0.2 0.4,0.2 0.7,0.4 1,0.9 0.3,0.4 0.4,0.8 0.4,1.3 0,0.6 -0.2,1.2 -0.6,1.6 -0.4,0.4 -1,0.7 -1.9,0.8 0.3,0.1 0.6,0.3 0.7,0.4 0.3,0.3 0.7,0.7 1,1.2 l 1.6,2.4 h -1.5 l -1.2,-1.8 c -0.3,-0.6 -0.6,-1 -0.9,-1.3 -0.2,-0.3 -0.4,-0.5 -0.6,-0.6 -0.2,-0.1 -0.3,-0.2 -0.5,-0.2 -0.1,0 -0.3,0 -0.7,0 H 106 v 4 z" style="fill:#d0d0d0;fill-opacity:1" /></g><g id="g4751" transform="translate(191.7466,347.21843)" style="fill:#d0d0d0;fill-opacity:1"><path id="path4753" class="st0" d="m 107.3,-219.6 c 4.7,0 8.5,-3.8 8.5,-8.5 0,-4.7 -3.8,-8.5 -8.5,-8.5 -4.7,0 -8.5,3.8 -8.5,8.5 0,4.7 3.8,8.5 8.5,8.5 m -7.2,-8.5 c 0,-4 3.2,-7.2 7.2,-7.2 4,0 7.2,3.2 7.2,7.2 0,3.9 -3.2,7.2 -7.2,7.2 -4,0 -7.2,-3.2 -7.2,-7.2" style="fill:#d0d0d0;fill-opacity:1" /></g></svg>